<svg width="79" height="79" viewBox="0 0 79 79" fill="none" xmlns="http://www.w3.org/2000/svg">
<circle cx="39.3256" cy="39.3256" r="39.3256" fill="white" fill-opacity="0.23"/>
<g clip-path="url(#clip0_939_292)">
<path d="M55.6825 50.5825C55.3072 50.4232 54.9037 50.3415 54.4961 50.3421C54.0885 50.3428 53.6853 50.4259 53.3105 50.5864L47.8432 52.9118C47.8856 52.499 47.841 52.0818 47.7124 51.6874C47.5837 51.2929 47.3739 50.9298 47.0964 50.6217C46.8189 50.3135 46.4799 50.0671 46.1014 49.8984C45.7229 49.7297 45.3132 49.6424 44.8989 49.6422H38.3391C37.6757 49.6414 37.0214 49.4867 36.4277 49.1902C33.6831 47.8197 30.6589 47.1047 27.5922 47.101H25.4487C25.4487 46.8763 25.3596 46.6609 25.201 46.502C25.0424 46.3432 24.8273 46.2539 24.603 46.2539H13.6094V47.9481H23.7573V58.1129H13.6094V59.8071H24.603C24.8273 59.8071 25.0424 59.7179 25.201 59.559C25.3596 59.4001 25.4487 59.1847 25.4487 58.96V58.637L31.7624 61.2629C35.2043 62.6705 39.052 62.7131 42.5241 61.382L55.5877 56.3929C55.9707 56.2471 56.3208 56.0262 56.6174 55.7431C56.914 55.4599 57.1511 55.1202 57.3148 54.744C57.4844 54.3625 57.5761 53.9509 57.5846 53.5334C57.5932 53.1159 57.5183 52.7009 57.3645 52.3127C57.2149 51.9257 56.9887 51.573 56.6997 51.2757C56.4107 50.9784 56.0647 50.7426 55.6825 50.5825ZM55.7676 54.0597C55.6936 54.2306 55.5864 54.385 55.452 54.5138C55.3177 54.6427 55.159 54.7433 54.9854 54.8099L41.9214 59.7995C38.8514 60.9768 35.4492 60.9399 32.4053 59.6963L25.4487 56.8026V48.7951H27.5922C30.3964 48.7985 33.1616 49.4524 35.6712 50.7055C36.5 51.1193 37.4131 51.3353 38.3391 51.3364H44.8989C45.2305 51.3368 45.5488 51.4673 45.7854 51.7C46.0221 51.9327 46.1583 52.249 46.1649 52.5811C46.1715 52.9132 46.0479 53.2346 45.8206 53.4765C45.5933 53.7184 45.2805 53.8615 44.9491 53.875C44.915 53.876 44.8811 53.8776 44.8468 53.8776H34.751V55.5717H44.8468C44.8642 55.5717 44.8815 55.5706 44.8989 55.5705V55.5717C44.9575 55.5716 45.016 55.5697 45.0745 55.566C45.7033 55.5397 46.3223 55.3999 46.9014 55.1531L53.9709 52.1459C54.1378 52.0745 54.3174 52.0375 54.499 52.0373C54.6805 52.037 54.8603 52.0734 55.0274 52.1444C55.2011 52.2175 55.3582 52.3251 55.4893 52.4606C55.6205 52.5961 55.723 52.7567 55.7906 52.9328C55.8619 53.1127 55.8966 53.305 55.8926 53.4986C55.8887 53.6921 55.8462 53.8829 55.7676 54.0597Z" fill="white"/>
<path d="M20.375 54.7249H22.0663V56.4191H20.375V54.7249ZM40.6709 32.3496L39.1123 30.7883C38.1661 29.8553 36.8902 29.3347 35.5626 29.3399C34.2349 29.3451 32.9631 29.8757 32.0243 30.816C31.0855 31.7564 30.5558 33.0303 30.5506 34.3602C30.5454 35.69 31.0651 36.9681 31.9965 37.9158L40.0726 46.0053C40.1511 46.084 40.2444 46.1464 40.347 46.189C40.4496 46.2315 40.5595 46.2534 40.6706 46.2534C40.7817 46.2534 40.8916 46.2315 40.9942 46.189C41.0968 46.1464 41.1901 46.084 41.2686 46.0053L49.3447 37.9158C50.2761 36.9681 50.7958 35.69 50.7906 34.3602C50.7854 33.0303 50.2557 31.7564 49.3169 30.816C48.3781 29.8757 47.1063 29.3451 45.7786 29.3399C44.451 29.3347 43.1751 29.8553 42.2289 30.7883L40.6709 32.3496ZM45.7872 31.0063C46.4478 31.0064 47.0935 31.2027 47.6427 31.5703C48.1919 31.938 48.62 32.4605 48.8727 33.0718C49.1255 33.6831 49.1917 34.3558 49.0629 35.0047C48.9341 35.6537 48.616 36.2498 48.149 36.7178L40.6709 44.2087L33.1926 36.7178C32.8759 36.4086 32.6237 36.0395 32.4505 35.6318C32.2774 35.2242 32.1867 34.7862 32.1839 34.3432C32.1811 33.9002 32.2661 33.4611 32.434 33.0513C32.602 32.6415 32.8495 32.2691 33.1622 31.9559C33.4749 31.6426 33.8466 31.3947 34.2557 31.2265C34.6649 31.0583 35.1033 30.9731 35.5455 30.9759C35.9878 30.9787 36.425 31.0695 36.832 31.2429C37.2389 31.4164 37.6075 31.669 37.9162 31.9862L40.0726 34.1463C40.1511 34.2249 40.2444 34.2873 40.347 34.3299C40.4496 34.3725 40.5595 34.3944 40.6706 34.3944C40.7817 34.3944 40.8916 34.3725 40.9942 34.3299C41.0968 34.2873 41.1901 34.2249 41.2686 34.1463L43.425 31.9862C43.7345 31.6745 44.1026 31.4274 44.5081 31.2592C44.9136 31.091 45.3483 31.005 45.7872 31.0063Z" fill="white"/>
<path d="M40.6709 17.4531C29.4797 17.4531 20.375 26.573 20.375 37.7829C20.3718 40.1965 20.7991 42.5912 21.6367 44.8542L23.2224 44.2648C22.4547 42.1904 22.0632 39.9953 22.0663 37.7829C22.0663 27.5072 30.4123 19.1473 40.6709 19.1473C50.9296 19.1473 59.2755 27.5072 59.2755 37.7829C59.2827 41.5432 58.1477 45.2167 56.0213 48.3155L57.4157 49.2742C59.736 45.8934 60.9745 41.8855 60.9669 37.7829C60.9669 26.573 51.8621 17.4531 40.6709 17.4531Z" fill="white"/>
<path d="M57.5604 38.6755C57.5912 38.0819 57.5912 37.4871 57.5604 36.8934L55.8714 36.9813C55.8852 37.2467 55.8926 37.5169 55.8926 37.7845C55.8926 38.052 55.8856 38.3222 55.8714 38.5876L57.5604 38.6755ZM45.1205 21.4359L44.6765 23.0706C47.5011 23.8426 50.0435 25.414 51.9993 27.5965C53.955 29.779 55.2411 32.48 55.7034 35.3759L57.3736 35.1106C56.8599 31.8925 55.4309 28.891 53.2577 26.4656C51.0845 24.0403 48.2592 22.294 45.1205 21.4359ZM63.9436 33.3932L62.2811 33.7049C62.5317 35.0503 62.6577 36.4159 62.6574 37.7845C62.6627 40.6419 62.1097 43.4728 61.0295 46.1176L62.5949 46.7591C63.7584 43.9108 64.3542 40.862 64.3488 37.7845C64.349 36.3113 64.2133 34.8414 63.9436 33.3932ZM34.9692 16.5079L34.5319 14.8711C30.819 15.8671 27.4041 17.7541 24.5828 20.369C21.7614 22.9838 19.6184 26.2478 18.3392 29.8785L19.9339 30.4431C21.1216 27.0718 23.1114 24.041 25.7311 21.613C28.3508 19.185 31.5215 17.4327 34.9692 16.5079ZM19.429 32.074L17.795 31.6359C17.6399 32.2165 17.507 32.8028 17.3965 33.3935L19.059 33.7055C19.1615 33.1571 19.285 32.6129 19.429 32.074Z" fill="white"/>
</g>
<defs>
<clipPath id="clip0_939_292">
<rect width="51" height="49" fill="white" transform="translate(14 14)"/>
</clipPath>
</defs>
</svg>
