<svg width="79" height="79" viewBox="0 0 79 79" fill="none" xmlns="http://www.w3.org/2000/svg">
<circle cx="39.3256" cy="39.3256" r="39.3256" fill="white" fill-opacity="0.23"/>
<path fill-rule="evenodd" clip-rule="evenodd" d="M22.1338 51.3077H44.8727L39.025 41.811C37.6468 42.2274 36.3905 43.0167 34.8393 42.7206C32.4506 42.2646 31.6227 41.3027 28.4042 41.1242L22.1338 51.3077ZM34.3781 24.7771L40.5401 22.9877L34.3781 21.1975V24.7771ZM33.5044 32.8445L38.0784 40.2734C37.1022 40.6147 36.0345 41.1578 35.1612 40.9936C33.2828 40.6403 32.1334 39.7314 29.439 39.4463L33.5044 32.8445ZM43.4573 45.6706L47.1486 39.6777L54.3099 51.3077H46.9294L43.4573 45.6706ZM63.4437 52.1869C63.4435 52.4202 63.3513 52.6438 63.1873 52.8086C63.0233 52.9735 62.8009 53.066 62.5691 53.066H13.8738C13.7591 53.066 13.6454 53.0433 13.5394 52.9991C13.4334 52.9549 13.3371 52.8902 13.2559 52.8085C13.1748 52.7269 13.1104 52.63 13.0665 52.5233C13.0226 52.4167 13 52.3024 13 52.1869C13 52.0714 13.0226 51.9571 13.0665 51.8504C13.1104 51.7438 13.1747 51.6468 13.2559 51.5652C13.337 51.4836 13.4334 51.4188 13.5394 51.3746C13.6454 51.3304 13.759 51.3077 13.8738 51.3077H20.0779L32.6299 30.9244V20.0281C32.6299 19.4446 33.1877 19.0218 33.7464 19.183L43.9326 22.1419C44.7702 22.3858 44.7709 23.5886 43.9326 23.8326L34.3781 26.6074V30.9244L42.43 44.0015L46.4047 37.5453C46.7453 36.9932 47.5487 36.9903 47.8902 37.5453L56.365 51.3077H62.5691C62.8009 51.3077 63.0233 51.4002 63.1873 51.5651C63.3513 51.73 63.4435 51.9536 63.4437 52.1869ZM57.3805 56.7741H19.0639C18.8323 56.7743 18.6102 56.867 18.4464 57.0318C18.2826 57.1967 18.1905 57.4202 18.1903 57.6532C18.1904 57.8864 18.2824 58.1099 18.4462 58.2748C18.6101 58.4396 18.8322 58.5323 19.0639 58.5324H57.3805C57.6122 58.5323 57.8344 58.4397 57.9983 58.2748C58.1621 58.11 58.2542 57.8864 58.2543 57.6532C58.2541 57.4201 58.1619 57.1967 57.9981 57.0318C57.8343 56.867 57.6122 56.7743 57.3805 56.7741ZM48.6747 63.1204C48.6746 63.3535 48.5825 63.5771 48.4187 63.7419C48.2548 63.9068 48.0326 63.9994 47.8009 63.9995H28.6434C28.5286 63.9996 28.415 63.9769 28.3089 63.9328C28.2029 63.8886 28.1066 63.8238 28.0254 63.7422C27.9443 63.6605 27.8799 63.5636 27.8361 63.4569C27.7922 63.3502 27.7696 63.2358 27.7697 63.1204C27.7696 63.0049 27.7921 62.8905 27.836 62.7838C27.8798 62.6771 27.9442 62.5801 28.0253 62.4985C28.1065 62.4168 28.2028 62.3521 28.3089 62.3079C28.415 62.2638 28.5286 62.2412 28.6434 62.2413H47.8009C47.9157 62.2413 48.0293 62.264 48.1353 62.3082C48.2413 62.3523 48.3377 62.4171 48.4188 62.4987C48.5 62.5803 48.5643 62.6772 48.6082 62.7839C48.6521 62.8906 48.6747 63.0049 48.6747 63.1204Z" fill="white"/>
<path d="M50.2211 15.3486C51.1576 13.9349 52.7576 13 54.5692 13C54.8009 13.0002 55.023 13.0929 55.1868 13.2578C55.3506 13.4226 55.4428 13.6461 55.443 13.8792C55.4429 14.1123 55.3508 14.3359 55.187 14.5007C55.0231 14.6656 54.8009 14.7583 54.5692 14.7584C52.6534 14.7584 51.0949 16.3272 51.0949 18.2548C51.0949 18.3703 51.0723 18.4846 51.0284 18.5913C50.9845 18.698 50.9202 18.7949 50.839 18.8765C50.7579 18.9582 50.6616 19.0229 50.5555 19.0671C50.4495 19.1113 50.3359 19.134 50.2211 19.134C49.7386 19.134 49.3467 18.7397 49.3467 18.2548C49.3467 16.3272 47.7896 14.7584 45.8738 14.7584C45.759 14.7584 45.6454 14.7358 45.5393 14.6916C45.4333 14.6475 45.3369 14.5827 45.2557 14.501C45.1746 14.4194 45.1102 14.3224 45.0663 14.2157C45.0225 14.109 44.9999 13.9947 45 13.8792C45 13.7637 45.0226 13.6494 45.0665 13.5427C45.1104 13.436 45.1747 13.3391 45.2559 13.2575C45.337 13.1758 45.4334 13.1111 45.5394 13.0669C45.6454 13.0227 45.759 13 45.8738 13C47.6854 13 49.2839 13.9349 50.2211 15.3486Z" fill="white"/>
<path d="M60.2211 24.3486C61.1576 22.9349 62.7576 22 64.5692 22C64.8009 22.0002 65.023 22.0929 65.1868 22.2578C65.3506 22.4226 65.4428 22.6461 65.443 22.8792C65.4429 23.1123 65.3508 23.3359 65.187 23.5007C65.0231 23.6656 64.8009 23.7583 64.5692 23.7584C62.6534 23.7584 61.0949 25.3272 61.0949 27.2548C61.0949 27.3703 61.0723 27.4846 61.0284 27.5913C60.9845 27.698 60.9202 27.7949 60.839 27.8765C60.7579 27.9582 60.6616 28.0229 60.5555 28.0671C60.4495 28.1113 60.3359 28.134 60.2211 28.134C59.7386 28.134 59.3467 27.7397 59.3467 27.2548C59.3467 25.3272 57.7896 23.7584 55.8738 23.7584C55.759 23.7584 55.6454 23.7358 55.5393 23.6916C55.4333 23.6475 55.3369 23.5827 55.2557 23.501C55.1746 23.4194 55.1102 23.3224 55.0663 23.2157C55.0225 23.109 54.9999 22.9947 55 22.8792C55 22.7637 55.0226 22.6494 55.0665 22.5427C55.1104 22.436 55.1747 22.3391 55.2559 22.2575C55.337 22.1758 55.4334 22.1111 55.5394 22.0669C55.6454 22.0227 55.759 22 55.8738 22C57.6854 22 59.2839 22.9349 60.2211 24.3486Z" fill="white"/>
</svg>
