<svg width="79" height="79" viewBox="0 0 79 79" fill="none" xmlns="http://www.w3.org/2000/svg">
<circle cx="39.3256" cy="39.3256" r="39.3256" fill="white" fill-opacity="0.23"/>
<path d="M17.6875 54.9711C17.6875 54.5567 17.8521 54.1593 18.1451 53.8663C18.4382 53.5733 18.8356 53.4086 19.25 53.4086H25.5C25.9144 53.4086 26.3118 53.5733 26.6049 53.8663C26.8979 54.1593 27.0625 54.5567 27.0625 54.9711V62.0024H28.625V54.9711C28.625 54.1423 28.2958 53.3475 27.7097 52.7614C27.1237 52.1754 26.3288 51.8461 25.5 51.8461H24.6945C25.3563 51.3578 25.847 50.673 26.0968 49.8894C26.3465 49.1058 26.3426 48.2634 26.0855 47.4822C25.8285 46.701 25.3314 46.0208 24.6651 45.5386C23.9989 45.0565 23.1974 44.7969 22.375 44.7969C21.5526 44.7969 20.7511 45.0565 20.0849 45.5386C19.4186 46.0208 18.9215 46.701 18.6645 47.4822C18.4074 48.2634 18.4035 49.1058 18.6532 49.8894C18.903 50.673 19.3937 51.3578 20.0555 51.8461H19.25C18.4212 51.8461 17.6263 52.1754 17.0403 52.7614C16.4542 53.3475 16.125 54.1423 16.125 54.9711V62.0024H17.6875V54.9711ZM20.0312 48.7211C20.0312 48.2576 20.1687 47.8045 20.4262 47.419C20.6838 47.0336 21.0498 46.7332 21.4781 46.5558C21.9064 46.3784 22.3776 46.332 22.8322 46.4224C23.2869 46.5129 23.7045 46.7361 24.0323 47.0639C24.3601 47.3916 24.5833 47.8093 24.6737 48.2639C24.7641 48.7185 24.7177 49.1898 24.5403 49.6181C24.363 50.0463 24.0625 50.4124 23.6771 50.6699C23.2917 50.9274 22.8386 51.0649 22.375 51.0649C21.7534 51.0649 21.1573 50.818 20.7177 50.3784C20.2782 49.9389 20.0312 49.3427 20.0312 48.7211Z" fill="white"/>
<path d="M18.4688 54.9711H20.0312V62.0024H18.4688V54.9711ZM24.7188 54.9711H26.2812V62.0024H24.7188V54.9711ZM45.8125 62.0024V54.9711C45.8125 54.1423 45.4833 53.3475 44.8972 52.7614C44.3112 52.1754 43.5163 51.8461 42.6875 51.8461H41.882C42.5438 51.3578 43.0345 50.673 43.2843 49.8894C43.534 49.1058 43.5301 48.2634 43.273 47.4822C43.016 46.701 42.5189 46.0208 41.8526 45.5386C41.1864 45.0565 40.3849 44.7969 39.5625 44.7969C38.7401 44.7969 37.9386 45.0565 37.2724 45.5386C36.6061 46.0208 36.109 46.701 35.852 47.4822C35.5949 48.2634 35.591 49.1058 35.8407 49.8894C36.0905 50.673 36.5812 51.3578 37.243 51.8461H36.4375C35.6087 51.8461 34.8138 52.1754 34.2278 52.7614C33.6417 53.3475 33.3125 54.1423 33.3125 54.9711V62.0024H34.875V54.9711C34.875 54.5567 35.0396 54.1593 35.3326 53.8663C35.6257 53.5733 36.0231 53.4086 36.4375 53.4086H42.6875C43.1019 53.4086 43.4993 53.5733 43.7924 53.8663C44.0854 54.1593 44.25 54.5567 44.25 54.9711V62.0024H45.8125ZM39.5625 51.0649C39.0989 51.0649 38.6458 50.9274 38.2604 50.6699C37.875 50.4124 37.5746 50.0463 37.3972 49.6181C37.2198 49.1898 37.1733 48.7185 37.2638 48.2639C37.3542 47.8093 37.5774 47.3916 37.9052 47.0639C38.233 46.7361 38.6506 46.5129 39.1053 46.4224C39.5599 46.332 40.0311 46.3784 40.4594 46.5558C40.8877 46.7332 41.2537 47.0336 41.5113 47.419C41.7688 47.8045 41.9062 48.2576 41.9062 48.7211C41.9062 49.3427 41.6593 49.9389 41.2198 50.3784C40.7802 50.818 40.1841 51.0649 39.5625 51.0649Z" fill="white"/>
<path d="M35.6562 54.9711H37.2188V62.0024H35.6562V54.9711ZM41.9062 54.9711H43.4688V62.0024H41.9062V54.9711ZM59.875 51.8461H59.0695C59.7313 51.3578 60.222 50.673 60.4718 49.8894C60.7215 49.1058 60.7176 48.2634 60.4605 47.4822C60.2035 46.701 59.7064 46.0208 59.0401 45.5386C58.3739 45.0565 57.5724 44.7969 56.75 44.7969C55.9276 44.7969 55.1261 45.0565 54.4599 45.5386C53.7936 46.0208 53.2965 46.701 53.0395 47.4822C52.7824 48.2634 52.7785 49.1058 53.0282 49.8894C53.278 50.673 53.7687 51.3578 54.4305 51.8461H53.625C52.7962 51.8461 52.0013 52.1754 51.4153 52.7614C50.8292 53.3475 50.5 54.1423 50.5 54.9711V62.0024H52.0625V54.9711C52.0625 54.5567 52.2271 54.1593 52.5201 53.8663C52.8132 53.5733 53.2106 53.4086 53.625 53.4086H59.875C60.2894 53.4086 60.6868 53.5733 60.9799 53.8663C61.2729 54.1593 61.4375 54.5567 61.4375 54.9711V62.0024H63V54.9711C63 54.1423 62.6708 53.3475 62.0847 52.7614C61.4987 52.1754 60.7038 51.8461 59.875 51.8461ZM56.75 51.0649C56.2864 51.0649 55.8333 50.9274 55.4479 50.6699C55.0625 50.4124 54.7621 50.0463 54.5847 49.6181C54.4073 49.1898 54.3608 48.7185 54.4513 48.2639C54.5417 47.8093 54.7649 47.3916 55.0927 47.0639C55.4205 46.7361 55.8381 46.5129 56.2928 46.4224C56.7474 46.332 57.2186 46.3784 57.6469 46.5558C58.0752 46.7332 58.4412 47.0336 58.6988 47.419C58.9563 47.8045 59.0938 48.2576 59.0938 48.7211C59.0938 49.3427 58.8468 49.9389 58.4073 50.3784C57.9677 50.818 57.3716 51.0649 56.75 51.0649Z" fill="white"/>
<path d="M52.8438 54.9686H54.4062V61.9999H52.8438V54.9686ZM59.0938 54.9686H60.6562V61.9999H59.0938V54.9686ZM30.9688 29.9686C30.9688 30.1034 31.0037 30.2359 31.0701 30.3532C31.1365 30.4706 31.2321 30.5687 31.3477 30.6381L39.1602 35.3256C39.2817 35.3986 39.4207 35.4372 39.5625 35.4372C39.7043 35.4372 39.8433 35.3986 39.9648 35.3256L47.7773 30.6381C47.8929 30.5687 47.9885 30.4706 48.0549 30.3532C48.1213 30.2359 48.1562 30.1034 48.1562 29.9686V20.5936C48.1562 20.4588 48.1213 20.3263 48.0549 20.209C47.9885 20.0916 47.8929 19.9935 47.7773 19.9241L39.9648 15.2366C39.8433 15.1636 39.7043 15.125 39.5625 15.125C39.4207 15.125 39.2817 15.1636 39.1602 15.2366L31.3477 19.9241C31.2321 19.9935 31.1365 20.0916 31.0701 20.209C31.0037 20.3263 30.9688 20.4588 30.9688 20.5936V29.9686ZM46.5938 29.5264L40.3438 33.2764V26.3186L46.5938 22.0694V29.5264ZM39.5625 16.817L45.925 20.635L39.5625 24.96L33.2 20.635L39.5625 16.817ZM32.5312 22.0694L38.7812 26.3186V33.2764L32.5312 29.5264V22.0694Z" fill="white"/>
<path d="M52.8438 31.1406C52.8185 30.4203 52.6453 29.7129 52.335 29.0624C52.0247 28.4119 51.5838 27.8322 51.0398 27.3594L49.9602 28.4844C50.3517 28.812 50.6712 29.2172 50.8986 29.6743C51.1259 30.1314 51.2562 30.6307 51.2812 31.1406C51.2812 34.3164 45.9148 37 39.5625 37C33.2102 37 27.8438 34.3164 27.8438 31.1406C27.8688 30.6307 27.9991 30.1314 28.2264 29.6743C28.4538 29.2172 28.7733 28.812 29.1648 28.4844L28.0852 27.3594C27.5412 27.8322 27.1003 28.4119 26.79 29.0624C26.4797 29.7129 26.3065 30.4203 26.2812 31.1406C26.2812 35.3023 32.1148 38.5625 39.5625 38.5625C47.0102 38.5625 52.8438 35.3023 52.8438 31.1406ZM38.7812 40.125H40.3438V43.25H38.7812V40.125ZM21.75 42L26.4375 35.75L27.6875 36.6875L23 42.9375L21.75 42ZM51.4375 36.6875L52.6875 35.75L57.375 42L56.125 42.9375L51.4375 36.6875Z" fill="white"/>
</svg>
