<svg width="79" height="79" viewBox="0 0 79 79" fill="none" xmlns="http://www.w3.org/2000/svg">
<circle cx="39.3256" cy="39.3256" r="39.3256" fill="white" fill-opacity="0.23"/>
<path d="M19.7811 38.9992C19.7772 34.2213 21.56 29.6147 24.7793 26.0842C24.3948 25.4978 24.1439 24.834 24.0443 24.1398C21.6207 26.5747 19.8291 29.5652 18.8255 32.8508C17.822 36.1365 17.6368 39.6176 18.2862 42.9912C18.9356 46.3647 20.3999 49.5284 22.5515 52.2066C24.7031 54.8849 27.4769 56.9965 30.6312 58.3577L30.9645 56.4508C27.6291 54.9127 24.8037 52.4521 22.822 49.3596C20.8402 46.2672 19.785 42.6721 19.7811 38.9992ZM60.0936 38.9992C60.0933 35.8271 59.3765 32.696 57.9966 29.8398C56.6168 26.9835 54.6095 24.4758 52.1248 22.5039V24.9789C54.7205 27.4037 56.5926 30.501 57.5331 33.9263C58.4736 37.3516 58.4455 40.9707 57.452 44.381C56.4585 47.7912 54.5385 50.8591 51.9055 53.2434C49.2725 55.6276 46.0298 57.2348 42.5379 57.8861L41.0286 59.9936C46.2448 59.4833 51.085 57.0519 54.6085 53.1718C58.1319 49.2918 60.0869 44.2403 60.0936 38.9992Z" fill="white"/>
<path d="M48.6806 45.0345C48.5725 44.876 48.4185 44.7545 48.2392 44.6862C48.06 44.6179 47.8641 44.6061 47.678 44.6525L43.7095 45.6444L47.3883 34.6081C47.393 34.5945 47.393 34.5805 47.3967 34.5669C47.409 34.5235 47.418 34.4794 47.4239 34.4347C47.4276 34.408 47.4309 34.3822 47.4319 34.3555C47.4328 34.3409 47.4366 34.3269 47.4366 34.3119C47.4366 33.1372 47.6395 32.6141 48.3384 31.4253L49.0041 30.2923C49.8144 28.9217 50.2442 27.3597 50.2491 25.7675V16.8303C50.2295 15.9788 49.8731 15.1697 49.2581 14.5805C48.643 13.9912 47.8194 13.6699 46.9678 13.6869C46.4824 13.687 46.0027 13.7919 45.5616 13.9944V13.9709C45.5616 12.3931 44.0897 11.1087 42.2803 11.1087C41.7604 11.1077 41.2462 11.2178 40.7723 11.4317C40.5862 10.7488 40.1854 10.1438 39.6291 9.70616C39.0728 9.26851 38.3904 9.0214 37.6829 9.00133C36.9753 8.98125 36.2801 9.18928 35.6998 9.59469C35.1196 10.0001 34.6851 10.5814 34.4606 11.2527C33.9802 11.0032 33.4466 10.8734 32.9053 10.8744C32.0518 10.8593 31.2271 11.1833 30.612 11.7752C29.9969 12.3672 29.6417 13.1789 29.6241 14.0323V17.3216L31.4991 16.1872V14.0323C31.5317 13.682 31.694 13.3564 31.9541 13.1194C32.2142 12.8824 32.5534 12.7511 32.9053 12.7511C33.2572 12.7511 33.5964 12.8824 33.8565 13.1194C34.1166 13.3564 34.2789 13.682 34.3116 14.0323V14.4852L34.3251 14.4772C34.8979 14.1335 35.5288 13.8979 36.1866 13.782V12.2098C36.2052 11.8494 36.3614 11.5099 36.6231 11.2614C36.8848 11.0129 37.2319 10.8744 37.5928 10.8744C37.9537 10.8744 38.3008 11.0129 38.5625 11.2614C38.8242 11.5099 38.9804 11.8494 38.9991 12.2098V13.9817C39.6933 14.2127 40.3319 14.5858 40.8741 15.0772V13.9709C40.8741 13.4366 41.5181 12.9837 42.2803 12.9837C43.0425 12.9837 43.6866 13.4361 43.6866 13.9714V20.9023C43.6866 21.4377 43.0425 21.89 42.2803 21.89C41.9141 21.8949 41.556 21.7824 41.2584 21.5689C41.2031 21.6312 41.1506 21.6959 41.092 21.7564L39.3811 23.5156C39.7346 23.763 40.0702 24.0349 40.3856 24.3294C40.5594 24.0552 40.6898 23.7559 40.7723 23.442C41.2462 23.656 41.7604 23.7661 42.2803 23.765C42.8097 23.7745 43.3341 23.6609 43.8121 23.4332C44.2901 23.2054 44.7086 22.8697 45.0347 22.4525C45.5165 22.7899 46.0783 22.9952 46.6642 23.0482C47.25 23.1011 47.8395 22.9998 48.3741 22.7544V25.7675C48.369 27.0258 48.0282 28.26 47.3869 29.3427L46.7217 30.4756C46.1398 31.3465 45.7617 32.3373 45.6155 33.3744H31.4991V29.7523C31.5542 29.1123 31.3774 28.4737 31.0008 27.9533L27.9994 24.1508C27.9009 24.0348 27.8289 23.8986 27.7884 23.752C27.748 23.6053 27.74 23.4515 27.765 23.3014C27.8068 23.1174 27.8874 22.9444 28.0015 22.794C28.1156 22.6436 28.2604 22.5194 28.4264 22.4295L36.2667 17.6858C36.5924 17.4975 36.9679 17.4133 37.3428 17.4445C37.7178 17.4756 38.0742 17.6207 38.3644 17.8602C38.4577 17.9405 38.5338 18.0389 38.5881 18.1494C38.6424 18.2599 38.6738 18.3803 38.6803 18.5033C38.6798 18.6228 38.6551 18.741 38.6076 18.8508C38.5602 18.9605 38.491 19.0595 38.4042 19.1417L33.87 23.8044C33.7521 23.9259 33.6694 24.0771 33.6305 24.2419C33.5915 24.4067 33.5979 24.579 33.649 24.7404C33.7 24.9019 33.7938 25.0465 33.9203 25.159C34.0469 25.2715 34.2015 25.3476 34.3678 25.3794C34.5769 25.4187 39.4725 26.3998 38.9601 30.2825C38.9416 30.4057 38.9478 30.5313 38.9784 30.652C39.009 30.7727 39.0633 30.8862 39.1382 30.9857C39.2131 31.0852 39.307 31.1688 39.4146 31.2316C39.5222 31.2943 39.6412 31.3351 39.7646 31.3514C39.8881 31.3676 40.0136 31.3592 40.1337 31.3264C40.2539 31.2937 40.3663 31.2373 40.4645 31.1606C40.5626 31.0839 40.6445 30.9885 40.7053 30.8798C40.7661 30.7711 40.8047 30.6514 40.8187 30.5277C41.2969 26.9052 38.6086 24.8816 36.3014 23.9933L39.7486 20.4491C40.0091 20.1884 40.2148 19.8781 40.3533 19.5366C40.4917 19.195 40.5603 18.8291 40.5548 18.4606C40.5429 18.0886 40.4564 17.7228 40.3005 17.3847C40.1446 17.0467 39.9225 16.7434 39.6473 16.4928C39.058 15.9744 38.32 15.6555 37.5386 15.5816C36.7572 15.5077 35.9725 15.6826 35.2964 16.0812L27.4556 20.8259C27.061 21.0518 26.7196 21.36 26.4546 21.7296C26.1896 22.0991 26.0073 22.5214 25.92 22.9677C25.8468 23.3792 25.8631 23.8017 25.9678 24.2064C26.0726 24.6111 26.2633 24.9885 26.527 25.3128L29.5289 29.1158C29.6109 29.2194 29.6236 29.352 29.6236 29.7533V34.3119L29.6241 34.3189V53.0619C29.624 53.2138 29.6609 53.3634 29.7314 53.4979C29.802 53.6323 29.9042 53.7477 30.0292 53.8339C30.1543 53.9201 30.2984 53.9747 30.4491 53.9929C30.5999 54.0111 30.7529 53.9924 30.8948 53.9384L33.4786 52.9555L30.8653 67.9006C30.8287 68.1098 30.8643 68.3253 30.9662 68.5117C31.0681 68.698 31.2302 68.8443 31.426 68.9265C31.6219 69.0087 31.8399 69.0219 32.0442 68.964C32.2486 68.9062 32.4272 68.7806 32.5509 68.608L48.6675 46.108C48.7793 45.9519 48.8406 45.7653 48.8429 45.5733C48.8453 45.3813 48.7886 45.1933 48.6806 45.0345ZM46.9678 21.1869C46.6135 21.2037 46.2668 21.0799 46.0034 20.8423C45.74 20.6047 45.5812 20.2726 45.5616 19.9184V16.8303C45.5975 16.4824 45.7612 16.1602 46.0209 15.9259C46.2807 15.6917 46.618 15.562 46.9678 15.562C47.3176 15.562 47.6549 15.6917 47.9147 15.9259C48.1744 16.1602 48.3381 16.4824 48.3741 16.8303V19.9184C48.3544 20.2726 48.1956 20.6047 47.9322 20.8423C47.6688 21.0799 47.3221 21.2037 46.9678 21.1869ZM31.4991 35.2494H45.1983L44.5734 37.1244H31.4991V35.2494ZM33.4205 64.1745L35.6095 51.6552C35.6381 51.492 35.6229 51.3241 35.5656 51.1687C35.5082 51.0133 35.4107 50.8759 35.2829 50.7704C35.1551 50.665 35.0017 50.5953 34.8383 50.5684C34.6748 50.5415 34.5071 50.5584 34.3523 50.6173L31.4991 51.7025V38.9994H33.3741V46.4994C33.3741 46.748 33.4728 46.9865 33.6486 47.1623C33.8245 47.3381 34.0629 47.4369 34.3116 47.4369C34.5602 47.4369 34.7986 47.3381 34.9745 47.1623C35.1503 46.9865 35.2491 46.748 35.2491 46.4994V38.9994H43.9481L41.3906 46.6719C41.3375 46.8313 41.3283 47.002 41.3638 47.1661C41.3993 47.3303 41.4782 47.482 41.5924 47.6052C41.7066 47.7284 41.8518 47.8187 42.0128 47.8666C42.1738 47.9145 42.3447 47.9183 42.5076 47.8775L45.6576 47.09L33.4205 64.1745Z" fill="white"/>
</svg>
